<svg width="1226" height="117" viewBox="0 0 1226 117" fill="none" xmlns="http://www.w3.org/2000/svg">
<path d="M30.088 93.768C25.224 93.768 20.84 92.68 16.936 90.504C13.032 88.264 9.928 85.16 7.624 81.192C5.384 77.224 4.264 72.552 4.264 67.176C4.264 61.736 5.384 57.032 7.624 53.064C9.928 49.096 13.032 46.024 16.936 43.848C20.84 41.672 25.224 40.584 30.088 40.584C34.44 40.584 38.248 41.544 41.512 43.464C44.776 45.384 47.304 48.296 49.096 52.2C50.888 56.104 51.784 61.096 51.784 67.176C51.784 73.192 50.92 78.184 49.192 82.152C47.464 86.056 44.968 88.968 41.704 90.888C38.504 92.808 34.632 93.768 30.088 93.768ZM32.68 81.48C35.112 81.48 37.32 80.904 39.304 79.752C41.288 78.6 42.856 76.968 44.008 74.856C45.224 72.68 45.832 70.12 45.832 67.176C45.832 64.168 45.224 61.608 44.008 59.496C42.856 57.384 41.288 55.752 39.304 54.6C37.32 53.448 35.112 52.872 32.68 52.872C30.184 52.872 27.944 53.448 25.96 54.6C23.976 55.752 22.376 57.384 21.16 59.496C20.008 61.608 19.432 64.168 19.432 67.176C19.432 70.12 20.008 72.68 21.16 74.856C22.376 76.968 23.976 78.6 25.96 79.752C27.944 80.904 30.184 81.48 32.68 81.48ZM46.216 93V82.44L46.504 67.08L45.544 51.816V21.768H60.52V93H46.216ZM106.061 93V82.92L105.101 80.712V62.664C105.101 59.464 104.109 56.968 102.125 55.176C100.205 53.384 97.2288 52.488 93.1968 52.488C90.4448 52.488 87.7248 52.936 85.0368 53.832C82.4128 54.664 80.1728 55.816 78.3168 57.288L72.9408 46.824C75.7568 44.84 79.1488 43.304 83.1168 42.216C87.0848 41.128 91.1168 40.584 95.2128 40.584C103.085 40.584 109.197 42.44 113.549 46.152C117.901 49.864 120.077 55.656 120.077 63.528V93H106.061ZM90.3168 93.768C86.2848 93.768 82.8288 93.096 79.9488 91.752C77.0688 90.344 74.8608 88.456 73.3248 86.088C71.7888 83.72 71.0208 81.064 71.0208 78.12C71.0208 75.048 71.7568 72.36 73.2288 70.056C74.7648 67.752 77.1648 65.96 80.4288 64.68C83.6928 63.336 87.9488 62.664 93.1968 62.664H106.925V71.4H94.8288C91.3088 71.4 88.8768 71.976 87.5328 73.128C86.2528 74.28 85.6128 75.72 85.6128 77.448C85.6128 79.368 86.3488 80.904 87.8208 82.056C89.3568 83.144 91.4368 83.688 94.0608 83.688C96.5568 83.688 98.7968 83.112 100.781 81.96C102.765 80.744 104.205 78.984 105.101 76.68L107.405 83.592C106.317 86.92 104.333 89.448 101.453 91.176C98.5728 92.904 94.8608 93.768 90.3168 93.768ZM133.631 93V41.352H148.607V93H133.631ZM141.119 34.152C138.367 34.152 136.127 33.352 134.399 31.752C132.671 30.152 131.807 28.168 131.807 25.8C131.807 23.432 132.671 21.448 134.399 19.848C136.127 18.248 138.367 17.448 141.119 17.448C143.871 17.448 146.111 18.216 147.839 19.752C149.567 21.224 150.431 23.144 150.431 25.512C150.431 28.008 149.567 30.088 147.839 31.752C146.175 33.352 143.935 34.152 141.119 34.152ZM179.882 93.768C175.466 93.768 171.21 93.256 167.114 92.232C163.082 91.144 159.882 89.8 157.514 88.2L162.506 77.448C164.874 78.92 167.658 80.136 170.858 81.096C174.122 81.992 177.322 82.44 180.458 82.44C183.914 82.44 186.346 82.024 187.754 81.192C189.226 80.36 189.962 79.208 189.962 77.736C189.962 76.52 189.386 75.624 188.234 75.048C187.146 74.408 185.674 73.928 183.818 73.608C181.962 73.288 179.914 72.968 177.674 72.648C175.498 72.328 173.29 71.912 171.05 71.4C168.81 70.824 166.762 69.992 164.906 68.904C163.05 67.816 161.546 66.344 160.394 64.488C159.306 62.632 158.762 60.232 158.762 57.288C158.762 54.024 159.69 51.144 161.546 48.648C163.466 46.152 166.218 44.2 169.802 42.792C173.386 41.32 177.674 40.584 182.666 40.584C186.186 40.584 189.77 40.968 193.418 41.736C197.066 42.504 200.106 43.624 202.538 45.096L197.546 55.752C195.05 54.28 192.522 53.288 189.962 52.776C187.466 52.2 185.034 51.912 182.666 51.912C179.338 51.912 176.906 52.36 175.37 53.256C173.834 54.152 173.066 55.304 173.066 56.712C173.066 57.992 173.61 58.952 174.698 59.592C175.85 60.232 177.354 60.744 179.21 61.128C181.066 61.512 183.082 61.864 185.258 62.184C187.498 62.44 189.738 62.856 191.978 63.432C194.218 64.008 196.234 64.84 198.026 65.928C199.882 66.952 201.386 68.392 202.538 70.248C203.69 72.04 204.266 74.408 204.266 77.352C204.266 80.552 203.306 83.4 201.386 85.896C199.466 88.328 196.682 90.248 193.034 91.656C189.45 93.064 185.066 93.768 179.882 93.768ZM219.096 112.392C216.408 112.392 213.752 111.976 211.128 111.144C208.504 110.312 206.36 109.16 204.696 107.688L210.168 97.032C211.32 98.056 212.632 98.856 214.104 99.432C215.64 100.008 217.144 100.296 218.616 100.296C220.728 100.296 222.392 99.784 223.608 98.76C224.888 97.8 226.04 96.168 227.064 93.864L229.752 87.528L230.904 85.896L249.432 41.352H263.832L240.504 96.168C238.84 100.328 236.92 103.592 234.744 105.96C232.632 108.328 230.264 109.992 227.64 110.952C225.08 111.912 222.232 112.392 219.096 112.392ZM227.928 95.016L204.888 41.352H220.344L238.2 84.552L227.928 95.016ZM707.413 93.768C702.997 93.768 698.741 93.256 694.645 92.232C690.613 91.144 687.413 89.8 685.045 88.2L690.037 77.448C692.405 78.92 695.189 80.136 698.389 81.096C701.653 81.992 704.853 82.44 707.989 82.44C711.445 82.44 713.877 82.024 715.285 81.192C716.757 80.36 717.493 79.208 717.493 77.736C717.493 76.52 716.917 75.624 715.765 75.048C714.677 74.408 713.205 73.928 711.349 73.608C709.493 73.288 707.445 72.968 705.205 72.648C703.029 72.328 700.821 71.912 698.581 71.4C696.341 70.824 694.293 69.992 692.437 68.904C690.581 67.816 689.077 66.344 687.925 64.488C686.837 62.632 686.293 60.232 686.293 57.288C686.293 54.024 687.221 51.144 689.077 48.648C690.997 46.152 693.749 44.2 697.333 42.792C700.917 41.32 705.205 40.584 710.197 40.584C713.717 40.584 717.301 40.968 720.949 41.736C724.597 42.504 727.637 43.624 730.069 45.096L725.077 55.752C722.581 54.28 720.053 53.288 717.493 52.776C714.997 52.2 712.565 51.912 710.197 51.912C706.869 51.912 704.437 52.36 702.901 53.256C701.365 54.152 700.597 55.304 700.597 56.712C700.597 57.992 701.141 58.952 702.229 59.592C703.381 60.232 704.885 60.744 706.741 61.128C708.597 61.512 710.613 61.864 712.789 62.184C715.029 62.44 717.269 62.856 719.509 63.432C721.749 64.008 723.765 64.84 725.557 65.928C727.413 66.952 728.917 68.392 730.069 70.248C731.221 72.04 731.797 74.408 731.797 77.352C731.797 80.552 730.837 83.4 728.917 85.896C726.997 88.328 724.213 90.248 720.565 91.656C716.981 93.064 712.597 93.768 707.413 93.768ZM762.157 93.768C756.077 93.768 751.341 92.232 747.949 89.16C744.557 86.024 742.861 81.384 742.861 75.24V29.928H757.837V75.048C757.837 77.224 758.413 78.92 759.565 80.136C760.717 81.288 762.285 81.864 764.269 81.864C766.637 81.864 768.653 81.224 770.317 79.944L774.349 90.504C772.813 91.592 770.957 92.424 768.781 93C766.669 93.512 764.461 93.768 762.157 93.768ZM734.893 54.024V42.504H770.701V54.024H734.893ZM814.436 93V82.92L813.476 80.712V62.664C813.476 59.464 812.484 56.968 810.5 55.176C808.58 53.384 805.604 52.488 801.572 52.488C798.82 52.488 796.1 52.936 793.412 53.832C790.788 54.664 788.548 55.816 786.692 57.288L781.316 46.824C784.132 44.84 787.524 43.304 791.492 42.216C795.46 41.128 799.492 40.584 803.588 40.584C811.46 40.584 817.572 42.44 821.924 46.152C826.276 49.864 828.452 55.656 828.452 63.528V93H814.436ZM798.692 93.768C794.66 93.768 791.204 93.096 788.324 91.752C785.444 90.344 783.236 88.456 781.7 86.088C780.164 83.72 779.396 81.064 779.396 78.12C779.396 75.048 780.132 72.36 781.604 70.056C783.14 67.752 785.54 65.96 788.804 64.68C792.068 63.336 796.324 62.664 801.572 62.664H815.3V71.4H803.204C799.684 71.4 797.252 71.976 795.908 73.128C794.628 74.28 793.988 75.72 793.988 77.448C793.988 79.368 794.724 80.904 796.196 82.056C797.732 83.144 799.812 83.688 802.436 83.688C804.932 83.688 807.172 83.112 809.156 81.96C811.14 80.744 812.58 78.984 813.476 76.68L815.78 83.592C814.692 86.92 812.708 89.448 809.828 91.176C806.948 92.904 803.236 93.768 798.692 93.768ZM842.006 93V41.352H856.31V55.944L854.294 51.72C855.83 48.072 858.294 45.32 861.686 43.464C865.078 41.544 869.206 40.584 874.07 40.584V54.408C873.43 54.344 872.854 54.312 872.342 54.312C871.83 54.248 871.286 54.216 870.71 54.216C866.614 54.216 863.286 55.4 860.726 57.768C858.23 60.072 856.982 63.688 856.982 68.616V93H842.006ZM905.876 93.768C899.796 93.768 895.06 92.232 891.668 89.16C888.276 86.024 886.58 81.384 886.58 75.24V29.928H901.556V75.048C901.556 77.224 902.132 78.92 903.284 80.136C904.436 81.288 906.004 81.864 907.988 81.864C910.356 81.864 912.372 81.224 914.036 79.944L918.068 90.504C916.532 91.592 914.676 92.424 912.5 93C910.388 93.512 908.18 93.768 905.876 93.768ZM878.612 54.024V42.504H914.42V54.024H878.612ZM950.513 93.768C944.625 93.768 939.441 92.616 934.961 90.312C930.545 88.008 927.121 84.872 924.689 80.904C922.257 76.872 921.041 72.296 921.041 67.176C921.041 61.992 922.225 57.416 924.593 53.448C927.025 49.416 930.321 46.28 934.481 44.04C938.641 41.736 943.345 40.584 948.593 40.584C953.649 40.584 958.193 41.672 962.225 43.848C966.321 45.96 969.553 49.032 971.921 53.064C974.289 57.032 975.473 61.8 975.473 67.368C975.473 67.944 975.441 68.616 975.377 69.384C975.313 70.088 975.249 70.76 975.185 71.4H933.233V62.664H967.313L961.553 65.256C961.553 62.568 961.009 60.232 959.921 58.248C958.833 56.264 957.329 54.728 955.409 53.64C953.489 52.488 951.249 51.912 948.689 51.912C946.129 51.912 943.857 52.488 941.873 53.64C939.953 54.728 938.449 56.296 937.361 58.344C936.273 60.328 935.729 62.696 935.729 65.448V67.752C935.729 70.568 936.337 73.064 937.553 75.24C938.833 77.352 940.593 78.984 942.833 80.136C945.137 81.224 947.825 81.768 950.897 81.768C953.649 81.768 956.049 81.352 958.097 80.52C960.209 79.688 962.129 78.44 963.857 76.776L971.825 85.416C969.457 88.104 966.481 90.184 962.897 91.656C959.313 93.064 955.185 93.768 950.513 93.768ZM985.443 93V41.352H999.747V55.944L997.731 51.72C999.267 48.072 1001.73 45.32 1005.12 43.464C1008.52 41.544 1012.64 40.584 1017.51 40.584V54.408C1016.87 54.344 1016.29 54.312 1015.78 54.312C1015.27 54.248 1014.72 54.216 1014.15 54.216C1010.05 54.216 1006.72 55.4 1004.16 57.768C1001.67 60.072 1000.42 63.688 1000.42 68.616V93H985.443ZM1038.89 82.44L1039.27 64.2L1063.37 41.352H1081.23L1058.09 64.872L1050.31 71.208L1038.89 82.44ZM1026.51 93V21.768H1041.48V93H1026.51ZM1065 93L1047.53 71.304L1056.94 59.688L1083.15 93H1065ZM1089.88 93V41.352H1104.86V93H1089.88ZM1097.37 34.152C1094.62 34.152 1092.38 33.352 1090.65 31.752C1088.92 30.152 1088.06 28.168 1088.06 25.8C1088.06 23.432 1088.92 21.448 1090.65 19.848C1092.38 18.248 1094.62 17.448 1097.37 17.448C1100.12 17.448 1102.36 18.216 1104.09 19.752C1105.82 21.224 1106.68 23.144 1106.68 25.512C1106.68 28.008 1105.82 30.088 1104.09 31.752C1102.42 33.352 1100.18 34.152 1097.37 34.152ZM1139.88 93.768C1133.8 93.768 1129.06 92.232 1125.67 89.16C1122.28 86.024 1120.58 81.384 1120.58 75.24V29.928H1135.56V75.048C1135.56 77.224 1136.13 78.92 1137.28 80.136C1138.44 81.288 1140 81.864 1141.99 81.864C1144.36 81.864 1146.37 81.224 1148.04 79.944L1152.07 90.504C1150.53 91.592 1148.68 92.424 1146.5 93C1144.39 93.512 1142.18 93.768 1139.88 93.768ZM1112.61 54.024V42.504H1148.42V54.024H1112.61Z" fill="#5A0FF8"/>
<path d="M300.855 94.152C291.319 94.152 283.863 91.496 278.487 86.184C273.111 80.872 270.423 73.288 270.423 63.432V25.8H285.975V62.856C285.975 69.256 287.287 73.864 289.911 76.68C292.535 79.496 296.215 80.904 300.951 80.904C305.687 80.904 309.367 79.496 311.991 76.68C314.615 73.864 315.927 69.256 315.927 62.856V25.8H331.287V63.432C331.287 73.288 328.599 80.872 323.223 86.184C317.847 91.496 310.391 94.152 300.855 94.152ZM346.656 93V25.8H362.208V93H346.656Z" fill="#2D3848"/>
<path d="M404.287 93V41.352H418.591V55.944L416.575 51.72C418.111 48.072 420.575 45.32 423.967 43.464C427.359 41.544 431.487 40.584 436.351 40.584V54.408C435.711 54.344 435.135 54.312 434.623 54.312C434.111 54.248 433.567 54.216 432.991 54.216C428.895 54.216 425.567 55.4 423.007 57.768C420.511 60.072 419.263 63.688 419.263 68.616V93H404.287ZM470.513 93.768C464.625 93.768 459.441 92.616 454.961 90.312C450.545 88.008 447.121 84.872 444.689 80.904C442.257 76.872 441.041 72.296 441.041 67.176C441.041 61.992 442.225 57.416 444.593 53.448C447.025 49.416 450.321 46.28 454.481 44.04C458.641 41.736 463.345 40.584 468.593 40.584C473.649 40.584 478.193 41.672 482.225 43.848C486.321 45.96 489.553 49.032 491.921 53.064C494.289 57.032 495.473 61.8 495.473 67.368C495.473 67.944 495.441 68.616 495.377 69.384C495.313 70.088 495.249 70.76 495.185 71.4H453.233V62.664H487.313L481.553 65.256C481.553 62.568 481.009 60.232 479.921 58.248C478.833 56.264 477.329 54.728 475.409 53.64C473.489 52.488 471.249 51.912 468.689 51.912C466.129 51.912 463.857 52.488 461.873 53.64C459.953 54.728 458.449 56.296 457.361 58.344C456.273 60.328 455.729 62.696 455.729 65.448V67.752C455.729 70.568 456.337 73.064 457.553 75.24C458.833 77.352 460.593 78.984 462.833 80.136C465.137 81.224 467.825 81.768 470.897 81.768C473.649 81.768 476.049 81.352 478.097 80.52C480.209 79.688 482.129 78.44 483.857 76.776L491.825 85.416C489.457 88.104 486.481 90.184 482.897 91.656C479.313 93.064 475.185 93.768 470.513 93.768ZM535.717 93V82.92L534.757 80.712V62.664C534.757 59.464 533.765 56.968 531.781 55.176C529.861 53.384 526.885 52.488 522.853 52.488C520.101 52.488 517.381 52.936 514.693 53.832C512.069 54.664 509.829 55.816 507.973 57.288L502.597 46.824C505.413 44.84 508.805 43.304 512.773 42.216C516.741 41.128 520.773 40.584 524.869 40.584C532.741 40.584 538.853 42.44 543.205 46.152C547.557 49.864 549.733 55.656 549.733 63.528V93H535.717ZM519.973 93.768C515.941 93.768 512.485 93.096 509.605 91.752C506.725 90.344 504.517 88.456 502.981 86.088C501.445 83.72 500.677 81.064 500.677 78.12C500.677 75.048 501.413 72.36 502.885 70.056C504.421 67.752 506.821 65.96 510.085 64.68C513.349 63.336 517.605 62.664 522.853 62.664H536.581V71.4H524.485C520.965 71.4 518.533 71.976 517.189 73.128C515.909 74.28 515.269 75.72 515.269 77.448C515.269 79.368 516.005 80.904 517.477 82.056C519.013 83.144 521.093 83.688 523.717 83.688C526.213 83.688 528.453 83.112 530.437 81.96C532.421 80.744 533.861 78.984 534.757 76.68L537.061 83.592C535.973 86.92 533.989 89.448 531.109 91.176C528.229 92.904 524.517 93.768 519.973 93.768ZM588.622 93.768C583.054 93.768 578.094 92.648 573.742 90.408C569.39 88.104 565.966 84.936 563.47 80.904C561.038 76.872 559.822 72.296 559.822 67.176C559.822 61.992 561.038 57.416 563.47 53.448C565.966 49.416 569.39 46.28 573.742 44.04C578.094 41.736 583.054 40.584 588.622 40.584C594.062 40.584 598.798 41.736 602.83 44.04C606.862 46.28 609.838 49.512 611.758 53.736L600.142 59.976C598.798 57.544 597.102 55.752 595.054 54.6C593.07 53.448 590.894 52.872 588.526 52.872C585.966 52.872 583.662 53.448 581.614 54.6C579.566 55.752 577.934 57.384 576.718 59.496C575.566 61.608 574.99 64.168 574.99 67.176C574.99 70.184 575.566 72.744 576.718 74.856C577.934 76.968 579.566 78.6 581.614 79.752C583.662 80.904 585.966 81.48 588.526 81.48C590.894 81.48 593.07 80.936 595.054 79.848C597.102 78.696 598.798 76.872 600.142 74.376L611.758 80.712C609.838 84.872 606.862 88.104 602.83 90.408C598.798 92.648 594.062 93.768 588.622 93.768ZM642.251 93.768C636.171 93.768 631.435 92.232 628.043 89.16C624.651 86.024 622.955 81.384 622.955 75.24V29.928H637.931V75.048C637.931 77.224 638.507 78.92 639.659 80.136C640.811 81.288 642.379 81.864 644.363 81.864C646.731 81.864 648.747 81.224 650.411 79.944L654.443 90.504C652.907 91.592 651.051 92.424 648.875 93C646.763 93.512 644.555 93.768 642.251 93.768ZM614.987 54.024V42.504H650.795V54.024H614.987Z" fill="#61DAFB"/>
</svg>
